<svg width="773" height="791" viewBox="0 0 773 791" fill="none" xmlns="http://www.w3.org/2000/svg">
<g opacity="0.45">
<path opacity="0.0344828" d="M98.1676 183.943C101.934 179.454 107.6 176.688 115.005 175.577C122.415 174.466 131.534 175.018 142.148 177.139C163.375 181.382 190.475 191.882 221.613 207.722C283.883 239.401 362.2 292.387 441.797 359.176C521.394 425.966 587.175 493.893 629.185 549.716C650.192 577.63 665.238 602.495 673.102 622.663C677.035 632.747 679.161 641.632 679.354 649.122C679.546 656.608 677.806 662.668 674.039 667.157C670.272 671.646 664.606 674.411 657.201 675.522C649.792 676.633 640.673 676.082 630.059 673.96C608.832 669.718 581.732 659.218 550.593 643.377C488.324 611.699 410.006 558.713 330.409 491.923C250.813 425.134 185.032 357.207 143.022 301.384C122.015 273.469 106.969 248.604 99.1042 228.437C95.172 218.352 93.0452 209.467 92.853 201.978C92.6609 194.492 94.4009 188.432 98.1676 183.943Z" stroke="#23D5DD"/>
<path opacity="0.0689655" d="M120.321 156.764C124.464 152.62 130.35 150.358 137.823 149.897C145.302 149.436 154.338 150.78 164.726 153.819C185.503 159.895 211.585 172.717 241.224 191.212C300.496 228.196 373.897 287.807 447.37 361.279C520.843 434.752 580.453 508.154 617.438 567.425C635.932 597.065 648.754 623.147 654.831 643.923C657.869 654.311 659.213 663.348 658.752 670.826C658.291 678.3 656.03 684.185 651.886 688.329C647.742 692.472 641.857 694.734 634.383 695.195C626.905 695.656 617.869 694.312 607.48 691.274C586.704 685.197 560.622 672.375 530.983 653.881C471.711 616.896 398.309 557.286 324.837 483.813C251.364 410.34 191.753 336.938 154.769 277.667C136.274 248.028 123.453 221.946 117.376 201.169C114.337 190.781 112.993 181.744 113.454 174.266C113.916 166.793 116.177 160.907 120.321 156.764Z" stroke="#23D5DD"/>
<path opacity="0.103448" d="M144.496 131.605C148.985 127.839 155.045 126.099 162.531 126.291C170.021 126.483 178.906 128.61 188.99 132.542C209.158 140.406 234.023 155.452 261.937 176.46C317.76 218.469 385.687 284.25 452.477 363.847C519.266 443.444 572.252 521.762 603.93 584.031C619.771 615.169 630.271 642.27 634.514 663.497C636.635 674.11 637.187 683.23 636.075 690.639C634.965 698.044 632.199 703.71 627.71 707.477C623.221 711.243 617.161 712.983 609.675 712.791C602.185 712.599 593.301 710.472 583.216 706.54C563.049 698.676 538.183 683.63 510.269 662.622C454.446 620.613 386.519 554.832 319.73 475.235C252.94 395.638 199.954 317.32 168.276 255.051C152.435 223.913 141.935 196.812 137.693 175.585C135.571 164.972 135.02 155.852 136.131 148.443C137.242 141.038 140.007 135.372 144.496 131.605Z" stroke="#23D5DD"/>
<path opacity="0.137931" d="M170.511 108.638C175.311 105.277 181.5 104.071 188.94 104.915C196.385 105.759 205.051 108.653 214.754 113.449C234.159 123.041 257.618 140.197 283.596 163.557C335.545 210.272 397.48 281.723 457.078 366.838C516.676 451.953 562.635 534.591 588.765 599.384C601.832 631.785 609.93 659.697 612.306 681.213C613.495 691.971 613.249 701.104 611.497 708.388C609.745 715.668 606.495 721.072 601.695 724.433C596.895 727.794 590.706 728.999 583.266 728.155C575.822 727.311 567.156 724.418 557.453 719.622C538.047 710.03 514.588 692.874 488.611 669.513C436.662 622.798 374.727 551.347 315.128 466.232C255.53 381.117 209.571 298.48 183.441 233.686C170.374 201.286 162.277 173.373 159.9 151.858C158.712 141.099 158.957 131.967 160.71 124.682C162.462 117.402 165.711 111.999 170.511 108.638Z" stroke="#23D5DD"/>
<path opacity="0.172414" d="M198.167 88.0148C203.241 85.0848 209.512 84.4236 216.85 85.9126C224.193 87.4025 232.573 91.0398 241.821 96.6634C260.317 107.91 282.192 127.046 306.035 152.581C353.714 203.646 409.186 280.223 461.139 370.209C513.093 460.194 551.674 546.523 572.058 613.347C582.251 646.763 587.885 675.275 588.378 696.916C588.624 707.737 587.583 716.813 585.202 723.917C582.823 731.017 579.115 736.117 574.04 739.047C568.965 741.977 562.695 742.638 555.356 741.149C548.014 739.659 539.633 736.022 530.385 730.398C511.889 719.151 490.015 700.016 466.172 674.48C418.493 623.415 363.02 546.838 311.067 456.853C259.114 366.867 220.533 280.539 200.149 213.714C189.956 180.298 184.321 151.787 183.829 130.145C183.583 119.325 184.623 110.248 187.004 103.144C189.384 96.0443 193.092 90.9448 198.167 88.0148Z" stroke="#23D5DD"/>
<path opacity="0.206897" d="M227.252 69.8689C232.563 67.3924 238.867 67.2802 246.048 69.4031C253.233 71.5273 261.265 75.8812 269.987 82.2894C287.432 95.1055 307.556 116.074 329.083 143.591C372.13 198.617 420.717 279.737 464.63 373.908C508.542 468.08 539.453 557.442 553.935 625.789C561.177 659.966 564.305 688.861 562.909 710.462C562.211 721.263 560.384 730.215 557.393 737.084C554.403 743.949 550.265 748.706 544.954 751.183C539.643 753.659 533.339 753.772 526.159 751.649C518.974 749.525 510.942 745.171 502.219 738.762C484.774 725.946 464.65 704.977 443.124 677.461C400.077 622.435 351.49 541.314 307.577 447.143C263.664 352.972 232.754 263.609 218.271 195.263C211.03 161.086 207.902 132.191 209.298 110.59C209.995 99.7885 211.823 90.8371 214.814 83.9678C217.803 77.1024 221.941 72.3454 227.252 69.8689Z" stroke="#23D5DD"/>
<path opacity="0.241379" d="M257.547 54.3142C263.054 52.3099 269.343 52.7476 276.312 55.4883C283.284 58.2305 290.906 63.2679 299.037 70.412C315.299 84.6997 333.518 107.343 352.565 136.631C390.652 195.199 431.984 280.246 467.523 377.885C503.061 475.525 526.065 567.242 534.535 636.591C538.771 671.269 539.369 700.326 536.095 721.724C534.459 732.423 531.858 741.181 528.28 747.764C524.703 754.343 520.166 758.721 514.66 760.725C509.153 762.729 502.863 762.292 495.895 759.551C488.923 756.809 481.301 751.771 473.17 744.627C456.908 730.339 438.689 707.696 419.642 678.409C381.555 619.84 340.223 534.794 304.684 437.154C269.146 339.514 246.142 247.797 237.672 178.448C233.436 143.77 232.838 114.713 236.112 93.315C237.748 82.6158 240.349 73.8578 243.927 67.2753C247.504 60.6966 252.041 56.3184 257.547 54.3142Z" stroke="#23D5DD"/>
<path opacity="0.275862" d="M288.82 41.4509C294.48 39.9342 300.708 40.9184 307.411 44.256C314.118 47.5955 321.271 53.278 328.749 61.1036C343.703 76.7542 359.88 100.899 376.301 131.735C409.14 193.401 442.902 281.726 469.795 382.092C496.688 482.457 511.611 575.83 514.005 645.653C515.202 680.569 513.265 709.567 508.14 730.598C505.577 741.114 502.223 749.612 498.084 755.858C493.948 762.1 489.047 766.066 483.386 767.583C477.726 769.099 471.498 768.115 464.795 764.777C458.089 761.438 450.935 755.755 443.457 747.93C428.503 732.279 412.326 708.134 395.905 677.298C363.067 615.633 329.304 527.308 302.411 426.942C275.518 326.576 260.595 233.203 258.201 163.38C257.004 128.465 258.941 99.4662 264.067 78.4351C266.63 67.9192 269.984 59.4212 274.122 53.1757C278.258 46.9337 283.16 42.9676 288.82 41.4509Z" stroke="#23D5DD"/>
<path opacity="0.310345" d="M320.833 31.3489C326.604 30.3313 332.722 31.8545 339.109 35.7636C345.499 39.6749 352.13 45.9593 358.897 54.4068C372.431 71.3013 386.442 96.7641 400.113 128.914C427.452 193.207 453.388 284.139 471.431 386.466C489.474 488.794 496.203 583.112 492.502 652.878C490.651 687.765 486.194 716.485 479.255 736.989C475.785 747.241 471.704 755.415 467.036 761.276C462.372 767.134 457.144 770.657 451.373 771.675C445.602 772.693 439.484 771.169 433.097 767.26C426.707 763.349 420.076 757.064 413.309 748.617C399.775 731.723 385.764 706.26 372.093 674.109C344.754 609.817 318.818 518.885 300.775 416.558C282.732 314.23 276.003 219.912 279.704 150.146C281.555 115.259 286.012 86.5393 292.951 66.0349C296.421 55.7825 300.502 47.6091 305.17 41.7481C309.834 35.8903 315.062 32.3664 320.833 31.3489Z" stroke="#23D5DD"/>
<path opacity="0.344828" d="M353.344 24.0636C359.182 23.5529 365.144 25.6035 371.166 30.0544C377.191 34.5078 383.249 41.3462 389.254 50.3513C401.264 68.361 413.002 94.9481 423.819 128.167C445.45 194.598 463.362 287.444 472.418 390.955C481.475 494.466 479.957 589.012 470.19 658.19C465.306 692.783 458.363 721.004 449.663 740.826C445.313 750.737 440.534 758.523 435.374 763.955C430.217 769.384 424.701 772.439 418.863 772.95C413.026 773.46 407.064 771.41 401.042 766.959C395.017 762.506 388.959 755.667 382.954 746.662C370.944 728.652 359.206 702.065 348.389 668.846C326.757 602.415 308.845 509.569 299.789 406.058C290.733 302.547 292.251 208.002 302.018 138.824C306.902 104.231 313.845 76.0091 322.545 56.1875C326.895 46.2765 331.674 38.49 336.834 33.058C341.991 27.6291 347.507 24.5743 353.344 24.0636Z" stroke="#23D5DD"/>
<path opacity="0.37931" d="M386.104 19.6273C391.964 19.6273 397.724 22.1897 403.335 27.1485C408.949 32.11 414.388 39.4504 419.586 48.9446C429.98 67.9326 439.357 95.4415 447.237 129.477C462.996 197.541 472.748 291.594 472.748 395.501C472.748 499.407 462.996 593.461 447.237 661.524C439.357 695.56 429.98 723.069 419.586 742.057C414.388 751.551 408.949 758.891 403.335 763.853C397.724 768.812 391.964 771.374 386.104 771.374C380.244 771.374 374.483 768.812 368.872 763.853C363.258 758.891 357.819 751.551 352.622 742.057C342.228 723.069 332.851 695.56 324.971 661.524C309.211 593.461 299.459 499.407 299.459 395.501C299.459 291.594 309.211 197.541 324.971 129.477C332.851 95.4415 342.228 67.9326 352.622 48.9446C357.819 39.4504 363.258 32.11 368.872 27.1485C374.483 22.1897 380.244 19.6273 386.104 19.6273Z" stroke="#23D5DD"/>
<path opacity="0.413793" d="M418.863 18.0522C424.7 18.5629 430.216 21.6177 435.373 27.0466C440.533 32.4786 445.312 40.2651 449.662 50.1761C458.362 69.9977 465.305 98.2192 470.189 132.812C479.956 201.99 481.474 296.536 472.418 400.047C463.362 503.558 445.45 596.404 423.818 662.834C413.001 696.054 401.263 722.641 389.253 740.651C383.248 749.656 377.19 756.494 371.165 760.948C365.143 765.398 359.181 767.449 353.344 766.938C347.506 766.428 341.99 763.373 336.833 757.944C331.673 752.512 326.894 744.725 322.544 734.814C313.844 714.993 306.901 686.771 302.017 652.178C292.25 583 290.732 488.455 299.789 384.944C308.845 281.433 326.757 188.587 348.388 122.156C359.205 88.9367 370.943 62.3496 382.953 44.3399C388.958 35.3348 395.016 28.4964 401.041 24.043C407.063 19.5921 413.025 17.5415 418.863 18.0522Z" stroke="#23D5DD"/>
<path opacity="0.448276" d="M451.373 19.3272C457.144 20.3447 462.373 23.8686 467.037 29.7264C471.704 35.5874 475.786 43.7608 479.256 54.0132C486.195 74.5176 490.652 103.237 492.503 138.124C496.203 207.89 489.475 302.208 471.432 404.536C453.389 506.864 427.453 597.795 400.114 662.088C386.443 694.238 372.432 719.701 358.898 736.595C352.131 745.043 345.5 751.327 339.11 755.238C332.723 759.148 326.605 760.671 320.834 759.653C315.063 758.636 309.835 755.112 305.17 749.254C300.503 743.393 296.421 735.22 292.952 724.967C286.013 704.463 281.555 675.743 279.705 640.856C276.004 571.091 282.733 476.772 300.776 374.445C318.819 272.117 344.755 181.185 372.094 116.893C385.765 84.7424 399.776 59.2796 413.309 42.3851C420.076 33.9376 426.707 27.6532 433.098 23.7419C439.484 19.8328 445.603 18.3096 451.373 19.3272Z" stroke="#23D5DD"/>
<path opacity="0.482759" d="M483.387 23.4205C489.047 24.9371 493.948 28.9032 498.085 35.1453C502.223 41.3908 505.577 49.8888 508.14 60.4046C513.266 81.4358 515.203 110.434 514.006 145.35C511.612 215.173 496.689 308.546 469.796 408.911C442.903 509.277 409.14 597.602 376.302 659.268C359.881 690.104 343.704 714.249 328.749 729.899C321.272 737.725 314.118 743.408 307.411 746.747C300.708 750.085 294.481 751.069 288.82 749.552C283.16 748.035 278.259 744.069 274.123 737.827C269.984 731.582 266.63 723.084 264.067 712.568C258.942 691.537 257.004 662.538 258.202 627.623C260.595 557.8 275.519 464.427 302.412 364.061C329.305 263.695 363.067 175.37 395.905 113.705C412.327 82.8686 428.503 58.7238 443.458 43.0731C450.935 35.2476 458.089 29.5651 464.796 26.2256C471.499 22.8879 477.727 21.9038 483.387 23.4205Z" stroke="#23D5DD"/>
<path opacity="0.517241" d="M514.66 30.275C520.166 32.2792 524.703 36.6574 528.28 43.2361C531.858 49.8186 534.459 58.5766 536.095 69.2758C539.368 90.6736 538.771 119.731 534.535 154.409C526.065 223.758 503.061 315.475 467.522 413.115C431.984 510.754 390.652 595.801 352.565 654.369C333.518 683.657 315.299 706.3 299.037 720.588C290.906 727.732 283.284 732.769 276.312 735.512C269.343 738.252 263.054 738.69 257.547 736.686C252.041 734.682 247.504 730.303 243.927 723.725C240.349 717.142 237.748 708.384 236.112 697.685C232.838 676.287 233.436 647.23 237.672 612.552C246.142 543.203 269.146 451.486 304.684 353.846C340.222 256.206 381.555 171.16 419.642 112.591C438.689 83.3036 456.908 60.6606 473.17 46.3728C481.301 39.2287 488.923 34.1913 495.895 31.4491C502.863 28.7084 509.153 28.2708 514.66 30.275Z" stroke="#23D5DD"/>
<path opacity="0.551724" d="M544.954 39.82C550.265 42.2965 554.403 47.0534 557.393 53.9189C560.384 60.7881 562.211 69.7395 562.909 80.5406C564.305 102.142 561.177 131.037 553.935 165.214C539.453 233.56 508.542 322.923 464.63 417.094C420.717 511.265 372.13 592.386 329.083 647.412C307.556 674.928 287.432 695.897 269.987 708.713C261.265 715.122 253.233 719.476 246.048 721.6C238.867 723.723 232.563 723.61 227.252 721.134C221.942 718.657 217.803 713.9 214.814 707.035C211.823 700.166 209.995 691.214 209.298 680.413C207.902 658.812 211.03 629.917 218.272 595.74C232.754 527.393 263.664 438.031 307.577 343.859C351.49 249.688 400.077 168.568 443.124 113.542C464.65 86.0255 484.774 65.0566 502.219 52.2405C510.942 45.8323 518.974 41.4783 526.159 39.3542C533.339 37.2312 539.643 37.3435 544.954 39.82Z" stroke="#23D5DD"/>
<path opacity="0.586207" d="M574.04 51.9555C579.115 54.8855 582.823 59.985 585.203 67.0848C587.584 74.1887 588.624 83.2652 588.378 94.0861C587.886 115.727 582.251 144.239 572.058 177.655C551.674 244.479 513.093 330.808 461.14 420.794C409.187 510.779 353.714 587.356 306.035 638.421C282.192 663.957 260.317 683.092 241.822 694.339C232.574 699.962 224.193 703.6 216.85 705.089C209.512 706.579 203.242 705.917 198.167 702.987C193.092 700.057 189.384 694.958 187.005 687.858C184.624 680.754 183.583 671.678 183.829 660.857C184.322 639.216 189.956 610.704 200.149 577.288C220.533 510.464 259.114 424.135 311.067 334.149C363.021 244.164 418.493 167.587 466.172 116.522C490.015 90.9862 511.89 71.851 530.385 60.6041C539.634 54.9806 548.014 51.3432 555.357 49.8533C562.695 48.3643 568.965 49.0255 574.04 51.9555Z" stroke="#23D5DD"/>
<path opacity="0.62069" d="M601.695 66.5695C606.495 69.9306 609.745 75.3339 611.497 82.6141C613.249 89.8984 613.495 99.0311 612.306 109.789C609.93 131.305 601.832 159.217 588.765 191.618C562.635 256.411 516.676 339.049 457.078 424.164C397.48 509.279 335.545 580.73 283.596 627.445C257.618 650.805 234.159 667.961 214.754 677.553C205.051 682.35 196.385 685.243 188.94 686.087C181.5 686.931 175.311 685.726 170.511 682.364C165.711 679.003 162.462 673.6 160.71 666.32C158.957 659.035 158.712 649.903 159.9 639.145C162.277 617.629 170.374 589.716 183.441 557.316C209.571 492.523 255.53 409.885 315.128 324.77C374.727 239.655 436.662 168.204 488.611 121.489C514.588 98.1284 538.047 80.9725 557.453 71.3804C567.156 66.5843 575.822 63.6912 583.266 62.8469C590.706 62.0032 596.895 63.2084 601.695 66.5695Z" stroke="#23D5DD"/>
<path opacity="0.655172" d="M627.71 83.5255C632.199 87.2922 634.965 92.9581 636.076 100.363C637.187 107.773 636.636 116.892 634.514 127.506C630.271 148.733 619.772 175.833 603.931 206.971C572.253 269.241 519.267 347.558 452.477 427.155C385.687 506.752 317.76 572.533 261.938 614.543C234.023 635.55 209.158 650.596 188.99 658.46C178.906 662.393 170.021 664.519 162.531 664.712C155.046 664.904 148.986 663.164 144.497 659.397C140.008 655.63 137.242 649.964 136.131 642.559C135.02 635.15 135.572 626.03 137.693 615.417C141.936 594.19 152.435 567.09 168.276 535.951C199.954 473.682 252.94 395.364 319.73 315.767C386.52 236.17 454.447 170.39 510.269 128.38C538.184 107.372 563.049 92.3264 583.217 84.4621C593.301 80.5299 602.186 78.4031 609.676 78.2109C617.161 78.0188 623.221 79.7588 627.71 83.5255Z" stroke="#23D5DD"/>
<path opacity="0.689655" d="M651.886 102.674C656.029 106.817 658.291 112.703 658.752 120.177C659.213 127.655 657.869 136.691 654.831 147.08C648.754 167.856 635.932 193.938 617.438 223.577C580.453 282.849 520.843 356.25 447.37 429.723C373.897 503.196 300.496 562.806 241.224 599.791C211.585 618.286 185.503 631.107 164.726 637.184C154.338 640.222 145.301 641.566 137.823 641.105C130.35 640.644 124.464 638.383 120.321 634.239C116.177 630.095 113.915 624.21 113.454 616.736C112.993 609.258 114.337 600.222 117.376 589.833C123.452 569.057 136.274 542.975 154.769 513.336C191.753 454.064 251.364 380.662 324.836 307.19C398.309 233.717 471.711 174.106 530.982 137.122C560.622 118.627 586.704 105.806 607.48 99.7289C617.868 96.6905 626.905 95.3462 634.383 95.8075C641.857 96.2686 647.742 98.5301 651.886 102.674Z" stroke="#23D5DD"/>
<path opacity="0.724138" d="M674.039 123.845C677.806 128.334 679.546 134.394 679.354 141.879C679.162 149.369 677.035 158.254 673.103 168.338C665.238 188.506 650.192 213.371 629.185 241.286C587.175 297.108 521.394 365.035 441.797 431.825C362.201 498.614 283.883 551.601 221.614 583.279C190.475 599.12 163.375 609.619 142.148 613.862C131.534 615.983 122.415 616.535 115.006 615.424C107.6 614.313 101.935 611.547 98.1678 607.058C94.4012 602.569 92.6612 596.509 92.8532 589.023C93.0454 581.534 95.1723 572.649 99.1045 562.565C106.969 542.397 122.015 517.532 143.022 489.617C185.032 433.795 250.813 365.868 330.41 299.078C410.006 232.288 488.324 179.302 550.594 147.624C581.732 131.783 608.832 121.283 630.059 117.041C640.673 114.919 649.792 114.368 657.201 115.479C664.607 116.59 670.273 119.356 674.039 123.845Z" stroke="#23D5DD"/>
<path opacity="0.758621" d="M694.001 146.854C697.362 151.654 698.567 157.843 697.723 165.283C696.879 172.728 693.986 181.393 689.19 191.096C679.598 210.502 662.442 233.961 639.082 259.939C592.366 311.887 520.916 373.823 435.801 433.421C350.686 493.019 268.048 538.978 203.254 565.108C170.854 578.175 142.942 586.273 121.426 588.649C110.668 589.837 101.535 589.592 94.2506 587.839C86.9704 586.087 81.5671 582.838 78.206 578.038C74.8449 573.238 73.6397 567.049 74.4834 559.609C75.3277 552.164 78.2208 543.499 83.017 533.796C92.609 514.39 109.765 490.931 133.125 464.953C179.84 413.005 251.291 351.069 336.406 291.471C421.521 231.873 504.159 185.914 568.953 159.784C601.353 146.717 629.265 138.619 650.781 136.243C661.539 135.055 670.672 135.3 677.956 137.053C685.237 138.805 690.64 142.054 694.001 146.854Z" stroke="#23D5DD"/>
<path opacity="0.793103" d="M711.619 171.505C714.549 176.579 715.21 182.85 713.721 190.188C712.231 197.531 708.594 205.911 702.97 215.159C691.723 233.655 672.588 255.53 647.053 279.372C595.988 327.052 519.411 382.524 429.425 434.477C339.44 486.431 253.111 525.012 186.287 545.396C152.871 555.589 124.359 561.223 102.718 561.715C91.8969 561.962 82.8204 560.921 75.7165 558.54C68.6167 556.16 63.5172 552.453 60.5872 547.378C57.6572 542.303 56.996 536.033 58.485 528.694C59.9749 521.352 63.6123 512.971 69.2358 503.723C80.4827 485.227 99.618 463.353 125.153 439.51C176.219 391.83 252.795 336.358 342.781 284.405C432.766 232.452 519.095 193.87 585.92 173.487C619.336 163.293 647.847 157.659 669.488 157.167C680.309 156.921 689.386 157.961 696.49 160.342C703.59 162.722 708.689 166.43 711.619 171.505Z" stroke="#23D5DD"/>
<path opacity="0.827586" d="M726.76 197.585C729.237 202.896 729.349 209.2 727.226 216.381C725.102 223.565 720.748 231.597 714.34 240.32C701.524 257.765 680.555 277.889 653.039 299.415C598.012 342.463 516.892 391.05 422.721 434.962C328.55 478.875 239.187 509.786 170.84 524.268C136.663 531.51 107.769 534.637 86.1671 533.242C75.366 532.544 66.4147 530.716 59.5454 527.725C52.6799 524.736 47.923 520.598 45.4465 515.287C42.97 509.976 42.8577 503.672 44.9807 496.491C47.1048 489.306 51.4588 481.275 57.867 472.552C70.6831 455.107 91.652 434.983 119.168 413.457C174.195 370.409 255.315 321.822 349.486 277.909C443.657 233.997 533.02 203.086 601.367 188.604C635.544 181.362 664.438 178.234 686.04 179.63C696.841 180.328 705.792 182.155 712.662 185.146C719.527 188.136 724.284 192.274 726.76 197.585Z" stroke="#23D5DD"/>
<path opacity="0.862069" d="M739.308 224.875C741.313 230.381 740.875 236.671 738.134 243.64C735.392 250.612 730.355 258.234 723.211 266.365C708.923 282.626 686.28 300.846 656.992 319.892C598.423 357.98 513.377 399.312 415.737 434.85C318.097 470.388 226.38 493.393 157.032 501.863C122.353 506.099 93.2962 506.696 71.8983 503.423C61.1991 501.786 52.4411 499.186 45.8587 495.607C39.2799 492.031 34.9017 487.494 32.8975 481.987C30.8933 476.481 31.3309 470.191 34.0716 463.223C36.8139 456.25 41.8513 448.629 48.9954 440.498C63.2831 424.236 85.9262 406.016 115.214 386.97C173.783 348.882 258.829 307.55 356.469 272.012C454.109 236.474 545.826 213.47 615.174 204.999C649.853 200.764 678.91 200.166 700.308 203.439C711.007 205.076 719.765 207.676 726.347 211.255C732.926 214.831 737.304 219.368 739.308 224.875Z" stroke="#23D5DD"/>
<path opacity="0.896552" d="M749.169 253.143C750.686 258.803 749.702 265.031 746.364 271.734C743.025 278.441 737.342 285.594 729.517 293.072C713.866 308.026 689.721 324.203 658.885 340.624C597.219 373.462 508.894 407.225 408.529 434.118C308.163 461.011 214.79 475.934 144.967 478.328C110.051 479.525 81.0529 477.588 60.0217 472.462C49.5059 469.899 41.0079 466.545 34.7624 462.407C28.5203 458.271 24.5542 453.369 23.0376 447.709C21.5209 442.049 22.505 435.821 25.8427 429.118C29.1822 422.411 34.8647 415.258 42.6902 407.78C58.3409 392.826 82.4858 376.649 113.322 360.228C174.987 327.389 263.312 293.627 363.678 266.734C464.044 239.841 557.417 224.918 627.24 222.524C662.155 221.327 691.154 223.264 712.185 228.39C722.701 230.952 731.199 234.306 737.444 238.445C743.686 242.581 747.653 247.482 749.169 253.143Z" stroke="#23D5DD"/>
<path opacity="0.931035" d="M756.266 282.151C757.284 287.922 755.761 294.04 751.852 300.427C747.94 306.817 741.656 313.448 733.208 320.215C716.314 333.749 690.851 347.76 658.701 361.431C594.408 388.77 503.477 414.706 401.149 432.749C298.821 450.792 204.503 457.521 134.737 453.82C99.85 451.969 71.1307 447.512 50.6263 440.573C40.3739 437.103 32.2005 433.021 26.3395 428.354C20.4817 423.69 16.9579 418.462 15.9403 412.691C14.9227 406.92 16.4459 400.802 20.355 394.415C24.2664 388.025 30.5507 381.393 38.9982 374.626C55.8927 361.093 81.3556 347.082 113.506 333.411C177.799 306.072 268.73 280.136 371.058 262.093C473.385 244.05 567.704 237.321 637.47 241.022C672.357 242.872 701.076 247.33 721.58 254.269C731.833 257.738 740.006 261.82 745.867 266.487C751.725 271.152 755.249 276.38 756.266 282.151Z" stroke="#23D5DD"/>
<path opacity="0.965517" d="M760.546 311.658C761.057 317.495 759.006 323.458 754.555 329.479C750.102 335.504 743.264 341.563 734.259 347.567C716.249 359.577 689.662 371.316 656.442 382.132C590.012 403.764 497.166 421.676 393.655 430.732C290.144 439.788 195.598 438.271 126.42 428.503C91.8272 423.619 63.6057 416.676 43.7841 407.976C33.873 403.626 26.0865 398.847 20.6545 393.687C15.2256 388.53 12.1708 383.014 11.6601 377.177C11.1494 371.339 13.2 365.377 17.6509 359.355C22.1043 353.33 28.9427 347.272 37.9478 341.267C55.9575 329.258 82.5446 317.519 115.764 306.702C182.195 285.071 275.041 267.159 378.552 258.103C482.063 249.047 576.608 250.564 645.786 260.331C680.379 265.215 708.601 272.159 728.422 280.858C738.333 285.208 746.12 289.987 751.552 295.147C756.981 300.305 760.036 305.82 760.546 311.658Z" stroke="#23D5DD"/>
<path d="M761.977 341.411C761.977 347.271 759.415 353.032 754.456 358.643C749.494 364.257 742.154 369.696 732.66 374.893C713.672 385.288 686.163 394.664 652.127 402.545C584.064 418.304 490.01 428.056 386.104 428.056C282.198 428.056 188.144 418.304 120.08 402.545C86.0448 394.664 58.5358 385.288 39.5478 374.893C30.0537 369.696 22.7133 364.257 17.7517 358.643C12.7929 353.032 10.2305 347.271 10.2305 341.411C10.2305 335.551 12.7929 329.791 17.7517 324.18C22.7133 318.566 30.0537 313.127 39.5478 307.929C58.5358 297.535 86.0448 288.159 120.08 280.278C188.144 264.519 282.198 254.767 386.104 254.767C490.01 254.767 584.064 264.519 652.127 280.278C686.163 288.159 713.672 297.535 732.66 307.929C742.154 313.127 749.494 318.566 754.456 324.18C759.415 329.791 761.977 335.551 761.977 341.411Z" stroke="#23D5DD"/>
</g>
</svg>
