<svg width="771" height="89" viewBox="0 0 771 89" fill="none" xmlns="http://www.w3.org/2000/svg">
<g opacity="0.4">
<rect opacity="0.103448" x="44.7324" y="563.927" width="491.212" height="591.749" transform="rotate(-78 44.7324 563.927)" stroke="#1C33AC"/>
<rect opacity="0.137931" x="35.8453" y="545.865" width="491.212" height="591.749" transform="rotate(-75 35.8453 545.865)" stroke="#1C33AC"/>
<rect opacity="0.172414" x="27.9157" y="527.361" width="491.212" height="591.749" transform="rotate(-72 27.9157 527.361)" stroke="#1C33AC"/>
<rect opacity="0.206897" x="20.9656" y="508.467" width="491.212" height="591.749" transform="rotate(-69 20.9656 508.467)" stroke="#1C33AC"/>
<rect opacity="0.241379" x="15.014" y="489.233" width="491.212" height="591.749" transform="rotate(-66 15.014 489.233)" stroke="#1C33AC"/>
<rect opacity="0.275862" x="10.0768" y="469.718" width="491.212" height="591.749" transform="rotate(-63 10.0768 469.718)" stroke="#1C33AC"/>
<rect opacity="0.310345" x="6.16775" y="449.968" width="491.212" height="591.749" transform="rotate(-60 6.16775 449.968)" stroke="#1C33AC"/>
<rect opacity="0.344828" x="3.29786" y="430.042" width="491.212" height="591.749" transform="rotate(-57 3.29786 430.042)" stroke="#1C33AC"/>
<rect opacity="0.37931" x="1.47465" y="409.993" width="491.212" height="591.749" transform="rotate(-54 1.47465 409.993)" stroke="#1C33AC"/>
<rect opacity="0.413793" x="0.703233" y="389.876" width="491.212" height="591.749" transform="rotate(-51 0.703233 389.876)" stroke="#1C33AC"/>
<rect opacity="0.448276" x="0.985557" y="369.747" width="491.212" height="591.749" transform="rotate(-48 0.985557 369.747)" stroke="#1C33AC"/>
<rect opacity="0.482759" x="2.3213" y="349.659" width="491.212" height="591.749" transform="rotate(-45 2.3213 349.659)" stroke="#1C33AC"/>
<rect opacity="0.517241" x="4.7062" y="329.67" width="491.212" height="591.749" transform="rotate(-42 4.7062 329.67)" stroke="#1C33AC"/>
<rect opacity="0.551724" x="8.13378" y="309.833" width="491.212" height="591.749" transform="rotate(-39 8.13378 309.833)" stroke="#1C33AC"/>
<rect opacity="0.586207" x="12.596" y="290.201" width="491.212" height="591.749" transform="rotate(-36 12.596 290.201)" stroke="#1C33AC"/>
<rect opacity="0.62069" x="18.0785" y="270.83" width="491.212" height="591.749" transform="rotate(-33 18.0785 270.83)" stroke="#1C33AC"/>
<rect opacity="0.655172" x="24.5678" y="251.774" width="491.212" height="591.749" transform="rotate(-30 24.5678 251.774)" stroke="#1C33AC"/>
<rect opacity="0.689655" x="32.0449" y="233.082" width="491.212" height="591.749" transform="rotate(-27 32.0449 233.082)" stroke="#1C33AC"/>
<rect opacity="0.724138" x="40.4906" y="214.806" width="491.212" height="591.749" transform="rotate(-24 40.4906 214.806)" stroke="#1C33AC"/>
<rect opacity="0.758621" x="49.881" y="197" width="491.212" height="591.749" transform="rotate(-21 49.881 197)" stroke="#1C33AC"/>
<rect opacity="0.793103" x="60.1904" y="179.709" width="491.212" height="591.749" transform="rotate(-18 60.1904 179.709)" stroke="#1C33AC"/>
<rect opacity="0.827586" x="71.3904" y="162.981" width="491.212" height="591.749" transform="rotate(-15 71.3904 162.981)" stroke="#1C33AC"/>
<rect opacity="0.862069" x="83.4511" y="146.861" width="491.212" height="591.749" transform="rotate(-12 83.4511 146.861)" stroke="#1C33AC"/>
<rect opacity="0.896552" x="96.3385" y="131.394" width="491.212" height="591.749" transform="rotate(-9 96.3385 131.394)" stroke="#1C33AC"/>
<rect opacity="0.931035" x="110.018" y="116.625" width="491.212" height="591.749" transform="rotate(-6 110.018 116.625)" stroke="#1C33AC"/>
<rect opacity="0.965517" x="124.451" y="102.589" width="491.212" height="591.749" transform="rotate(-3 124.451 102.589)" stroke="#1C33AC"/>
<rect x="139.599" y="89.3296" width="491.212" height="591.749" stroke="#1C33AC"/>
</g>
</svg>
