<svg width="895" height="917" viewBox="0 0 895 917" fill="none" xmlns="http://www.w3.org/2000/svg">
<path opacity="0.0344828" d="M113.706 213.12C118.087 207.899 124.673 204.687 133.268 203.398C141.867 202.108 152.446 202.749 164.751 205.209C189.361 210.128 220.775 222.299 256.864 240.659C329.035 277.374 419.803 338.783 512.051 416.189C604.299 493.594 680.537 572.319 729.227 637.018C753.574 669.371 771.016 698.194 780.134 721.576C784.693 733.267 787.161 743.574 787.384 752.266C787.607 760.954 785.587 767.998 781.206 773.219C776.825 778.441 770.239 781.653 761.644 782.942C753.045 784.232 742.466 783.591 730.161 781.131C705.551 776.212 674.137 764.041 638.048 745.681C565.877 708.966 475.109 647.556 382.861 570.151C290.613 492.746 214.375 414.021 165.685 349.322C141.338 316.969 123.896 288.146 114.778 264.764C110.219 253.073 107.751 242.766 107.528 234.074C107.305 225.386 109.325 218.342 113.706 213.12Z" stroke="#00A3FF"/>
<path opacity="0.0689655" d="M139.384 181.617C144.203 176.797 151.045 174.171 159.719 173.636C168.398 173.101 178.88 174.661 190.924 178.184C215.012 185.229 245.246 200.092 279.597 221.527C348.294 264.393 433.364 333.48 518.514 418.63C603.665 503.781 672.752 588.851 715.618 657.547C737.053 691.899 751.916 722.133 758.961 746.22C762.484 758.265 764.044 768.747 763.508 777.426C762.973 786.1 760.348 792.941 755.528 797.761C750.709 802.58 743.867 805.206 735.193 805.741C726.514 806.277 716.032 804.716 703.988 801.194C679.9 794.149 649.666 779.285 615.315 757.85C546.618 714.985 461.548 645.898 376.398 560.747C291.247 475.596 222.16 390.526 179.294 321.83C157.859 287.478 142.996 257.245 135.951 233.157C132.428 221.113 130.868 210.631 131.403 201.952C131.939 193.277 134.564 186.436 139.384 181.617Z" stroke="#00A3FF"/>
<path opacity="0.103448" d="M167.407 152.456C172.628 148.075 179.672 146.055 188.36 146.278C197.052 146.501 207.359 148.969 219.05 153.528C242.432 162.646 271.255 180.088 303.608 204.435C368.307 253.125 447.032 329.363 524.437 421.611C601.843 513.859 663.252 604.627 699.967 676.798C718.327 712.887 730.498 744.301 735.417 768.911C737.877 781.216 738.518 791.795 737.228 800.394C735.939 808.989 732.727 815.575 727.506 819.956C722.284 824.337 715.24 826.357 706.552 826.134C697.86 825.911 687.553 823.443 675.862 818.884C652.48 809.766 623.657 792.324 591.304 767.977C526.605 719.287 447.88 643.049 370.475 550.801C293.07 458.553 231.66 367.785 194.945 295.614C176.585 259.525 164.414 228.111 159.495 203.501C157.035 191.196 156.394 180.618 157.684 172.018C158.973 163.424 162.185 156.837 167.407 152.456Z" stroke="#00A3FF"/>
<path opacity="0.137931" d="M197.56 125.836C203.143 121.926 210.337 120.528 218.972 121.508C227.612 122.487 237.664 125.844 248.914 131.405C271.412 142.526 298.605 162.413 328.713 189.488C388.922 243.631 460.703 326.44 529.774 425.084C598.845 523.727 652.11 619.502 682.395 694.598C697.539 732.15 706.927 764.505 709.682 789.45C711.06 801.923 710.776 812.517 708.742 820.971C706.708 829.421 702.935 835.702 697.351 839.611C691.768 843.521 684.575 844.919 675.939 843.939C667.299 842.96 657.247 839.603 645.998 834.042C623.499 822.921 596.306 803.034 566.199 775.959C505.989 721.816 434.209 639.007 365.138 540.363C296.067 441.72 242.802 345.945 212.517 270.849C197.372 233.297 187.985 200.942 185.23 175.997C183.852 163.524 184.135 152.93 186.17 144.476C188.203 136.026 191.977 129.745 197.56 125.836Z" stroke="#00A3FF"/>
<path opacity="0.172414" d="M229.616 101.932C235.519 98.5237 242.807 97.7581 251.324 99.4864C259.846 101.215 269.567 105.436 280.289 111.956C301.733 124.995 327.089 147.177 354.723 176.772C409.984 235.957 474.274 324.708 534.485 428.996C594.695 533.283 639.41 633.336 663.035 710.786C674.849 749.515 681.381 782.565 681.952 807.655C682.237 820.201 681.031 830.73 678.268 838.974C675.506 847.215 671.199 853.143 665.296 856.551C659.393 859.959 652.106 860.725 643.588 858.996C635.067 857.267 625.345 853.047 614.623 846.527C593.18 833.488 567.823 811.306 540.19 781.711C484.929 722.526 420.639 633.775 360.428 529.487C300.217 425.199 255.502 325.147 231.877 247.697C220.063 208.968 213.532 175.918 212.961 150.827C212.676 138.282 213.881 127.753 216.645 119.509C219.407 111.268 223.714 105.34 229.616 101.932Z" stroke="#00A3FF"/>
<path opacity="0.206897" d="M263.33 80.8989C269.507 78.0184 276.834 77.8909 285.168 80.3549C293.507 82.8201 302.823 87.8715 312.936 95.301C333.162 110.16 356.488 134.467 381.437 166.358C431.33 230.134 487.64 324.15 538.533 433.289C589.425 542.428 625.249 645.997 642.034 725.211C650.428 764.822 654.054 798.316 652.436 823.361C651.627 835.883 649.508 846.267 646.037 854.239C642.567 862.208 637.76 867.738 631.582 870.619C625.405 873.499 618.078 873.627 609.744 871.163C601.405 868.698 592.089 863.646 581.976 856.217C561.751 841.358 538.424 817.051 513.475 785.159C463.582 721.383 407.272 627.367 356.38 518.229C305.487 409.09 269.663 305.521 252.878 226.307C244.484 186.695 240.858 153.202 242.476 128.157C243.285 115.634 245.404 105.251 248.876 97.2784C252.345 89.31 257.153 83.7794 263.33 80.8989Z" stroke="#00A3FF"/>
<path opacity="0.241379" d="M298.445 62.87C304.85 60.5389 312.16 61.0504 320.248 64.2314C328.34 67.414 337.18 73.2581 346.607 81.5408C365.461 98.1058 386.58 124.354 408.655 158.298C452.799 226.18 500.701 324.746 541.888 437.905C583.074 551.064 609.736 657.361 619.553 737.737C624.462 777.929 625.155 811.611 621.361 836.419C619.463 848.824 616.447 858.983 612.294 866.623C608.143 874.258 602.872 879.349 596.467 881.68C590.063 884.011 582.753 883.5 574.665 880.319C566.573 877.136 557.732 871.292 548.305 863.009C529.452 846.444 508.332 820.196 486.258 786.252C442.114 718.37 394.211 619.804 353.025 506.645C311.838 393.486 285.177 287.189 275.359 206.813C270.45 166.621 269.757 132.939 273.552 108.131C275.449 95.7264 278.465 85.5668 282.618 77.9274C286.769 70.2918 292.04 65.2012 298.445 62.87Z" stroke="#00A3FF"/>
<path opacity="0.275862" d="M334.694 47.9605C341.277 46.1964 348.515 47.3431 356.295 51.217C364.079 55.0927 372.376 61.6851 381.046 70.7579C398.384 88.903 417.135 116.892 436.167 152.631C474.227 224.102 513.356 326.468 544.524 442.786C575.691 559.104 592.987 667.32 595.761 748.246C597.149 788.712 594.904 822.327 588.961 846.71C585.99 858.902 582.1 868.76 577.297 876.008C572.496 883.253 566.802 887.865 560.218 889.629C553.635 891.393 546.397 890.247 538.617 886.373C530.833 882.497 522.536 875.905 513.866 866.832C496.528 848.687 477.777 820.698 458.745 784.959C420.685 713.488 381.556 611.122 350.388 494.804C319.221 378.486 301.925 270.27 299.151 189.344C297.763 148.877 300.008 115.263 305.951 90.8795C308.922 78.6876 312.812 68.8296 317.615 61.5812C322.416 54.3364 328.11 49.7246 334.694 47.9605Z" stroke="#00A3FF"/>
<path opacity="0.310345" d="M371.801 36.2518C378.513 35.0682 385.623 36.8413 393.036 41.3785C400.452 45.9179 408.144 53.2084 415.989 63.0022C431.68 82.5894 447.92 112.106 463.765 149.368C495.451 223.884 525.51 329.271 546.421 447.862C567.332 566.454 575.13 675.766 570.841 756.626C568.696 797.059 563.53 830.35 555.485 854.123C551.462 866.009 546.728 875.491 541.312 882.293C535.898 889.092 529.823 893.19 523.111 894.373C516.398 895.557 509.288 893.784 501.876 889.247C494.459 884.707 486.768 877.417 478.922 867.623C463.232 848.036 446.991 818.519 431.146 781.257C399.46 706.741 369.402 601.355 348.491 482.763C327.58 364.171 319.781 254.859 324.07 174C326.215 133.566 331.381 100.275 339.426 76.5023C343.449 64.6158 348.183 55.1343 353.6 48.3321C359.014 41.5333 365.088 37.4353 371.801 36.2518Z" stroke="#00A3FF"/>
<path opacity="0.344828" d="M409.484 27.8085C416.274 27.2145 423.203 29.6005 430.192 34.7665C437.184 39.9349 444.211 47.8681 451.173 58.3084C465.097 79.1886 478.703 110.008 491.24 148.509C516.311 225.503 537.07 333.109 547.566 453.072C558.061 573.035 556.303 682.611 544.983 762.789C539.322 802.882 531.274 835.596 521.188 858.577C516.144 870.067 510.602 879.1 504.613 885.404C498.627 891.705 492.218 895.258 485.428 895.852C478.638 896.446 471.71 894.06 464.721 888.894C457.728 883.726 450.702 875.793 443.74 865.352C429.816 844.472 416.209 813.653 403.673 775.152C378.602 698.157 357.842 590.552 347.347 470.589C336.852 350.626 338.61 241.05 349.93 160.872C355.591 120.779 363.639 88.0651 373.725 65.0842C378.768 53.5936 384.311 44.5608 390.3 38.2566C396.286 31.9555 402.694 28.4026 409.484 27.8085Z" stroke="#00A3FF"/>
<path opacity="0.37931" d="M447.456 22.6666C454.272 22.6666 460.966 25.6475 467.479 31.4029C473.994 37.1611 480.303 45.6765 486.328 56.6839C498.379 78.6982 509.248 110.586 518.381 150.034C536.646 228.92 547.948 337.925 547.948 458.346C547.948 578.768 536.646 687.773 518.381 766.659C509.248 806.106 498.379 837.995 486.328 860.009C480.303 871.016 473.994 879.532 467.479 885.29C460.966 891.045 454.272 894.026 447.456 894.026C440.641 894.026 433.946 891.045 427.434 885.29C420.919 879.532 414.61 871.016 408.584 860.009C396.534 837.995 385.665 806.106 376.532 766.659C358.267 687.773 346.965 578.768 346.965 458.346C346.965 337.925 358.267 228.92 376.532 150.034C385.665 110.586 396.534 78.6982 408.584 56.6839C414.61 45.6765 420.919 37.1611 427.434 31.4029C433.946 25.6475 440.641 22.6666 447.456 22.6666Z" stroke="#00A3FF"/>
<path opacity="0.413793" d="M485.428 20.8412C492.218 21.4353 498.627 24.9882 504.613 31.2893C510.602 37.5935 516.144 46.6263 521.187 58.117C531.274 81.0978 539.322 113.812 544.982 153.905C556.303 234.083 558.061 343.658 547.566 463.622C537.07 583.585 516.311 691.19 491.24 768.184C478.703 806.685 465.097 837.505 451.173 858.385C444.211 868.825 437.184 876.759 430.192 881.927C423.203 887.093 416.274 889.479 409.484 888.885C402.694 888.291 396.285 884.738 390.3 878.437C384.311 872.133 378.768 863.1 373.725 851.609C363.639 828.628 355.591 795.914 349.93 755.821C338.61 675.643 336.852 566.068 347.347 446.105C357.842 326.142 378.602 218.536 403.673 141.542C416.209 103.041 429.816 72.2214 443.739 51.3412C450.701 40.9008 457.728 32.9677 464.721 27.7992C471.71 22.6333 478.638 20.2472 485.428 20.8412Z" stroke="#00A3FF"/>
<path opacity="0.448276" d="M523.111 22.3192C529.824 23.5028 535.899 27.6008 541.312 34.3996C546.729 41.2018 551.463 50.6833 555.486 62.5698C563.531 86.3422 568.697 119.633 570.842 160.067C575.131 240.927 567.332 350.238 546.422 468.83C525.511 587.422 495.452 692.809 463.766 767.325C447.921 804.587 431.681 834.103 415.99 853.69C408.144 863.484 400.453 870.775 393.037 875.314C385.624 879.851 378.514 881.624 371.801 880.441C365.089 879.257 359.014 875.159 353.6 868.36C348.184 861.558 343.45 852.077 339.427 840.19C331.382 816.418 326.216 783.127 324.071 742.693C319.782 661.834 327.58 552.522 348.491 433.93C369.402 315.338 399.461 209.951 431.147 135.435C446.992 98.1733 463.232 68.6569 478.923 49.0697C486.769 39.2759 494.46 31.9853 501.876 27.446C509.289 22.9088 516.399 21.1357 523.111 22.3192Z" stroke="#00A3FF"/>
<path opacity="0.482759" d="M560.218 27.0648C566.802 28.8289 572.496 33.4407 577.297 40.6855C582.1 47.9339 585.99 57.7919 588.961 69.9838C594.904 94.367 597.149 127.982 595.761 168.448C592.987 249.374 575.691 357.59 544.524 473.908C513.356 590.226 474.227 692.592 436.167 764.063C417.135 799.802 398.384 827.791 381.045 845.936C372.376 855.009 364.079 861.601 356.295 865.477C348.515 869.351 341.277 870.498 334.694 868.734C328.11 866.969 322.416 862.358 317.615 855.113C312.812 847.864 308.922 838.006 305.951 825.815C300.008 801.431 297.763 767.817 299.151 727.35C301.925 646.424 319.221 538.208 350.388 421.89C381.556 305.572 420.685 203.206 458.745 131.735C477.777 95.996 496.528 68.0073 513.866 49.8622C522.536 40.7894 530.833 34.197 538.617 30.3213C546.397 26.4474 553.635 25.3007 560.218 27.0648Z" stroke="#00A3FF"/>
<path opacity="0.517241" d="M596.467 35.011C602.872 37.3422 608.143 42.4328 612.294 50.0684C616.447 57.7078 619.463 67.8674 621.36 80.2718C625.155 105.08 624.462 138.762 619.553 178.954C609.736 259.33 583.074 365.627 541.887 478.786C500.701 591.945 452.799 690.511 408.654 758.393C386.58 792.337 365.461 818.585 346.607 835.15C337.18 843.433 328.34 849.277 320.248 852.46C312.16 855.641 304.85 856.152 298.445 853.821C292.04 851.49 286.769 846.399 282.618 838.764C278.465 831.124 275.449 820.965 273.552 808.56C269.757 783.752 270.45 750.07 275.359 709.878C285.177 629.502 311.838 523.205 353.025 410.046C394.211 296.887 442.114 198.321 486.258 130.439C508.332 96.4947 529.452 70.2468 548.305 53.6818C557.732 45.3991 566.573 39.555 574.665 36.3724C582.753 33.1914 590.063 32.6799 596.467 35.011Z" stroke="#00A3FF"/>
<path opacity="0.551724" d="M631.582 46.0748C637.76 48.9553 642.567 54.4859 646.036 62.4543C649.508 70.4266 651.627 80.8103 652.436 93.3329C654.054 118.378 650.428 151.871 642.034 191.482C625.249 270.697 589.425 374.266 538.532 483.404C487.64 592.543 431.33 686.559 381.437 750.335C356.488 782.226 333.162 806.534 312.936 821.393C302.823 828.822 293.507 833.873 285.168 836.339C276.834 838.803 269.507 838.675 263.33 835.795C257.152 832.914 252.345 827.384 248.876 819.415C245.404 811.443 243.285 801.059 242.476 788.537C240.858 763.492 244.484 729.998 252.878 690.387C269.663 611.173 305.487 507.604 356.38 398.465C407.272 289.326 463.582 195.31 513.475 131.534C538.424 99.643 561.75 75.3357 581.976 60.4769C592.089 53.0473 601.405 47.996 609.744 45.5308C618.078 43.0668 625.405 43.1942 631.582 46.0748Z" stroke="#00A3FF"/>
<path opacity="0.586207" d="M665.296 60.1419C671.199 63.5498 675.505 69.4784 678.267 77.7188C681.031 85.9633 682.237 96.4922 681.951 109.038C681.381 134.128 674.849 167.178 663.035 205.907C639.41 283.357 594.695 383.41 534.484 487.697C474.274 591.985 409.983 680.736 354.722 739.921C327.089 769.516 301.732 791.698 280.289 804.738C269.567 811.257 259.846 815.478 251.324 817.207C242.806 818.935 235.519 818.169 229.616 814.761C223.713 811.353 219.406 805.425 216.644 797.184C213.881 788.94 212.675 778.411 212.961 765.866C213.531 740.775 220.063 707.725 231.877 668.996C255.502 591.546 300.217 491.494 360.428 387.206C420.638 282.918 484.929 194.167 540.19 134.982C567.823 105.387 593.18 83.2052 614.623 70.1657C625.345 63.6459 635.066 59.4257 643.588 57.6966C652.105 55.9684 659.393 56.7339 665.296 60.1419Z" stroke="#00A3FF"/>
<path opacity="0.62069" d="M697.352 77.0818C702.935 80.9912 706.709 87.2726 708.742 95.7224C710.776 104.176 711.06 114.77 709.682 127.243C706.927 152.188 697.54 184.544 682.395 222.095C652.11 297.192 598.845 392.966 529.774 491.609C460.703 590.253 388.922 673.062 328.713 727.206C298.606 754.28 271.412 774.168 248.914 785.288C237.664 790.849 227.612 794.206 218.973 795.186C210.337 796.165 203.144 794.767 197.56 790.858C191.977 786.948 188.203 780.667 186.17 772.217C184.136 763.763 183.852 753.169 185.23 740.696C187.985 715.751 197.373 683.396 212.517 645.844C242.802 570.748 296.067 474.973 365.138 376.33C434.209 277.687 505.99 194.877 566.199 140.734C596.306 113.659 623.5 93.772 645.998 82.6511C657.248 77.0905 667.3 73.7336 675.94 72.7538C684.575 71.7745 691.768 73.1724 697.352 77.0818Z" stroke="#00A3FF"/>
<path opacity="0.655172" d="M727.505 96.7362C732.727 101.117 735.939 107.704 737.228 116.299C738.517 124.898 737.877 135.476 735.417 147.781C730.498 172.392 718.327 203.805 699.967 239.895C663.252 312.065 601.842 402.833 524.437 495.081C447.032 587.329 368.307 663.567 303.608 712.257C271.255 736.605 242.432 754.046 219.05 763.164C207.358 767.723 197.052 770.191 188.36 770.414C179.672 770.637 172.628 768.618 167.406 764.236C162.185 759.855 158.973 753.269 157.684 744.674C156.394 736.075 157.035 725.497 159.494 713.191C164.413 688.581 176.585 657.167 194.945 621.078C231.66 548.907 293.069 458.14 370.475 365.891C447.88 273.643 526.605 197.405 591.304 148.715C623.657 124.368 652.48 106.926 675.862 97.8086C687.553 93.2496 697.859 90.7816 706.552 90.5586C715.24 90.3356 722.284 92.3551 727.505 96.7362Z" stroke="#00A3FF"/>
<path opacity="0.689655" d="M755.528 118.932C760.348 123.752 762.973 130.593 763.509 139.267C764.044 147.946 762.484 158.428 758.961 170.472C751.916 194.56 737.053 224.794 715.618 259.145C672.752 327.842 603.665 412.912 518.514 498.062C433.364 583.213 348.294 652.3 279.597 695.166C245.246 716.601 215.012 731.464 190.924 738.509C178.88 742.032 168.398 743.592 159.719 743.057C151.045 742.521 144.203 739.896 139.384 735.076C134.564 730.257 131.939 723.415 131.404 714.741C130.868 706.062 132.428 695.58 135.951 683.536C142.996 659.448 157.859 629.214 179.294 594.863C222.16 526.166 291.247 441.096 376.398 355.946C461.548 270.795 546.618 201.708 615.315 158.843C649.666 137.408 679.9 122.544 703.988 115.499C716.032 111.977 726.514 110.416 735.193 110.952C743.867 111.487 750.709 114.112 755.528 118.932Z" stroke="#00A3FF"/>
<path opacity="0.724138" d="M781.206 143.472C785.587 148.694 787.607 155.738 787.384 164.426C787.161 173.118 784.693 183.425 780.134 195.116C771.016 218.498 753.575 247.321 729.227 279.674C680.537 344.373 604.299 423.098 512.051 500.503C419.803 577.909 329.035 639.318 256.864 676.033C220.775 694.393 189.361 706.564 164.751 711.483C152.446 713.943 141.868 714.584 133.269 713.294C124.674 712.005 118.087 708.793 113.706 703.572C109.325 698.35 107.306 691.306 107.528 682.618C107.751 673.926 110.219 663.619 114.778 651.928C123.896 628.546 141.338 599.723 165.685 567.37C214.375 502.671 290.613 423.946 382.861 346.541C475.109 269.136 565.877 207.726 638.048 171.011C674.137 152.651 705.551 140.48 730.161 135.561C742.466 133.101 753.045 132.46 761.644 133.75C770.239 135.039 776.825 138.251 781.206 143.472Z" stroke="#00A3FF"/>
<path opacity="0.758621" d="M804.344 170.143C808.253 175.726 809.651 182.92 808.672 191.555C807.692 200.195 804.335 210.247 798.775 221.497C787.654 243.995 767.766 271.188 740.692 301.296C686.548 361.505 603.739 433.286 505.096 502.357C406.452 571.428 310.678 624.693 235.582 654.978C198.03 670.122 165.675 679.51 140.729 682.265C128.256 683.643 117.663 683.359 109.209 681.325C100.759 679.291 94.4774 675.518 90.568 669.934C86.6586 664.351 85.2607 657.158 86.24 648.522C87.2198 639.882 90.5767 629.83 96.1373 618.581C107.258 596.082 127.146 568.889 154.22 538.782C208.363 478.572 291.173 406.792 389.816 337.721C488.46 268.65 584.234 215.385 659.33 185.1C696.882 169.955 729.237 160.568 754.183 157.813C766.655 156.435 777.249 156.718 785.703 158.753C794.153 160.786 800.434 164.56 804.344 170.143Z" stroke="#00A3FF"/>
<path opacity="0.793103" d="M824.766 198.717C828.174 204.619 828.939 211.907 827.211 220.425C825.482 228.946 821.262 238.667 814.742 249.389C801.702 270.833 779.521 296.189 749.925 323.823C690.74 379.084 601.99 443.374 497.702 503.585C393.414 563.796 293.362 608.511 215.912 632.136C177.183 643.949 144.132 650.481 119.042 651.052C106.497 651.337 95.9677 650.131 87.7232 647.368C79.4827 644.606 73.5542 640.299 70.1463 634.396C66.7383 628.494 65.9728 621.206 67.701 612.689C69.4301 604.167 73.6503 594.446 80.1701 583.724C93.2096 562.28 115.391 536.924 144.987 509.29C204.172 454.029 292.922 389.739 397.21 329.528C501.498 269.318 601.55 224.603 679 200.977C717.729 189.164 750.78 182.632 775.87 182.061C788.415 181.776 798.944 182.982 807.189 185.745C815.429 188.507 821.358 192.814 824.766 198.717Z" stroke="#00A3FF"/>
<path opacity="0.827586" d="M842.316 228.948C845.197 235.125 845.324 242.452 842.86 250.786C840.395 259.125 835.344 268.441 827.914 278.554C813.055 298.779 788.748 322.106 756.857 347.055C693.081 396.948 599.065 453.258 489.926 504.15C380.787 555.043 277.218 590.867 198.004 607.652C158.393 616.046 124.899 619.672 99.8544 618.054C87.3318 617.245 76.9481 615.126 68.9758 611.654C61.0074 608.185 55.4768 603.377 52.5963 597.2C49.7157 591.023 49.5882 583.696 52.0523 575.362C54.5175 567.023 59.5688 557.707 66.9984 547.594C81.8571 527.368 106.164 504.042 138.056 479.093C201.832 429.2 295.848 372.89 404.987 321.997C514.125 271.105 617.694 235.281 696.908 218.496C736.52 210.102 770.013 206.476 795.058 208.094C807.581 208.903 817.964 211.022 825.937 214.493C833.905 217.963 839.436 222.77 842.316 228.948Z" stroke="#00A3FF"/>
<path opacity="0.862069" d="M856.861 260.581C859.192 266.986 858.68 274.295 855.499 282.383C852.317 290.475 846.473 299.316 838.19 308.743C821.625 327.597 795.377 348.716 761.433 370.79C693.551 414.935 594.985 462.837 481.826 504.023C368.667 545.21 262.37 571.872 181.994 581.689C141.802 586.598 108.12 587.291 83.3114 583.496C70.9069 581.599 60.7474 578.583 53.108 574.43C45.4723 570.279 40.3818 565.008 38.0506 558.603C35.7194 552.198 36.231 544.888 39.412 536.8C42.5946 528.709 48.4387 519.868 56.7214 510.441C73.2864 491.587 99.5343 470.468 133.479 448.394C201.36 404.249 299.926 356.347 413.085 315.161C526.244 273.974 632.541 247.312 712.917 237.495C753.109 232.586 786.792 231.893 811.6 235.688C824.004 237.585 834.164 240.601 841.803 244.754C849.439 248.905 854.53 254.176 856.861 260.581Z" stroke="#00A3FF"/>
<path opacity="0.896552" d="M868.29 293.347C870.054 299.931 868.908 307.168 865.034 314.948C861.158 322.732 854.566 331.03 845.493 339.699C827.348 357.037 799.359 375.789 763.62 394.82C692.149 432.88 589.783 472.01 473.465 503.177C357.147 534.344 248.931 551.64 168.005 554.415C127.538 555.802 93.9237 553.558 69.5405 547.615C57.3487 544.644 47.4906 540.754 40.2423 535.951C32.9974 531.15 28.3856 525.455 26.6215 518.872C24.8575 512.288 26.0041 505.051 29.878 497.271C33.7537 489.487 40.3461 481.189 49.4189 472.52C67.564 455.182 95.5527 436.431 131.292 417.399C202.763 379.339 305.129 340.209 421.447 309.042C537.765 277.875 645.981 260.579 726.907 257.804C767.373 256.417 800.988 258.662 825.371 264.604C837.563 267.576 847.421 271.465 854.67 276.268C861.914 281.069 866.526 286.764 868.29 293.347Z" stroke="#00A3FF"/>
<path opacity="0.931035" d="M876.517 326.971C877.7 333.684 875.927 340.794 871.39 348.206C866.851 355.623 859.56 363.314 849.766 371.16C830.179 386.85 800.663 403.091 763.401 418.936C688.885 450.622 583.498 480.68 464.906 501.591C346.314 522.502 237.002 530.301 156.143 526.012C115.709 523.867 82.4181 518.701 58.6457 510.656C46.7592 506.633 37.2777 501.899 30.4755 496.482C23.6767 491.068 19.5787 484.994 18.3952 478.281C17.2116 471.569 18.9847 464.459 23.5219 457.046C28.0613 449.63 35.3518 441.938 45.1456 434.093C64.7328 418.402 94.2493 402.162 131.511 386.317C206.027 354.631 311.414 324.572 430.006 303.661C548.598 282.75 657.909 274.952 738.769 279.241C779.203 281.386 812.494 286.552 836.266 294.597C848.153 298.62 857.634 303.354 864.436 308.77C871.235 314.184 875.333 320.259 876.517 326.971Z" stroke="#00A3FF"/>
<path opacity="0.965517" d="M881.478 361.173C882.072 367.963 879.686 374.891 874.52 381.881C869.351 388.873 861.418 395.9 850.978 402.862C830.098 416.786 799.278 430.392 760.777 442.929C683.783 468 576.177 488.759 456.214 499.254C336.251 509.75 226.676 507.991 146.498 496.671C106.405 491.011 73.6904 482.963 50.7096 472.876C39.219 467.833 30.1862 462.29 23.882 456.302C17.5808 450.316 14.0279 443.907 13.4339 437.117C12.8399 430.327 15.2259 423.399 20.3919 416.41C25.5603 409.417 33.4935 402.39 43.9338 395.428C64.814 381.504 95.6336 367.898 134.135 355.361C211.129 330.29 318.734 309.531 438.697 299.036C558.66 288.54 668.236 290.299 748.414 301.619C788.507 307.28 821.221 315.327 844.202 325.414C855.693 330.457 864.725 336 871.03 341.988C877.331 347.974 880.884 354.383 881.478 361.173Z" stroke="#00A3FF"/>
<path d="M883.136 395.662C883.136 402.478 880.155 409.172 874.4 415.684C868.641 422.2 860.126 428.508 849.119 434.534C827.104 446.585 795.216 457.454 755.769 466.587C676.883 484.852 567.878 496.154 447.456 496.154C327.035 496.154 218.03 484.852 139.143 466.587C99.6963 457.454 67.808 446.585 45.7937 434.534C34.7864 428.508 26.271 422.2 20.5128 415.684C14.7573 409.172 11.7765 402.478 11.7765 395.662C11.7765 388.846 14.7573 382.152 20.5128 375.64C26.271 369.124 34.7864 362.816 45.7937 356.79C67.808 344.739 99.6963 333.871 139.143 324.737C218.03 306.472 327.035 295.17 447.456 295.17C567.878 295.17 676.883 306.472 755.769 324.737C795.216 333.871 827.104 344.739 849.119 356.79C860.126 362.816 868.641 369.124 874.4 375.64C880.155 382.152 883.136 388.846 883.136 395.662Z" stroke="#00A3FF"/>
</svg>
