<svg width="162" height="24" viewBox="0 0 162 24" fill="none" xmlns="http://www.w3.org/2000/svg">
<path d="M0 0.274025H4.75885V14.98H4.94612L14.6951 0.274025H18.8702V23.6575H14.1003V8.94006H13.9351L4.13094 23.6575H0V0.274025Z" fill="#1C33AC"/>
<path d="M21.9518 4.35014V0.274025H40.4805V4.35014H33.5736V23.6575H28.8588V4.35014H21.9518Z" fill="#1C33AC"/>
<path d="M54.5487 23.6575V16.0761V12.1142V0.274025H63.4495C65.1606 0.274025 66.6184 0.61275 67.8228 1.2902C69.0272 1.96004 69.9451 2.89248 70.5767 4.08754C71.2156 5.27498 71.5351 6.6451 71.5351 8.19791C71.5351 9.75071 71.212 11.1208 70.5657 12.3083C69.9194 13.4957 68.9831 14.4206 67.7567 15.0828C66.5376 15.745 65.0614 16.0761 63.3283 16.0761H57.6551V12.1142H62.5572C63.4752 12.1142 64.2316 11.9505 64.8264 11.6232C65.4286 11.2883 65.8766 10.8278 66.1704 10.2417C66.4715 9.64795 66.622 8.9667 66.622 8.19791C66.622 7.4215 66.4715 6.74405 66.1704 6.16556C65.8766 5.57945 65.4286 5.12655 64.8264 4.80685C64.2242 4.47954 63.4605 4.31589 62.5351 4.31589H59.3185V23.6575H54.5487Z" fill="#1C33AC"/>
<path d="M79.0286 17.2407L85.1204 6.11989H89.747V23.6575H85.2746V12.5024L79.2049 23.6575H74.5452V6.11989H79.0286V17.2407Z" fill="#1C33AC"/>
<path d="M91.8098 9.94481V6.11989H107.144V9.94481H101.691V23.6575H97.2186V9.94481H91.8098Z" fill="#1C33AC"/>
<path d="M117.094 24C115.353 24 113.855 23.6346 112.599 22.9039C111.351 22.1656 110.389 21.1227 109.713 19.7755C109.038 18.4206 108.7 16.8183 108.7 14.9686C108.7 13.1646 109.038 11.5814 109.713 10.2188C110.389 8.85633 111.34 7.79448 112.566 7.0333C113.8 6.27212 115.247 5.89153 116.907 5.89153C118.023 5.89153 119.062 6.07802 120.024 6.451C120.994 6.81637 121.838 7.36822 122.558 8.10657C123.285 8.84491 123.85 9.77355 124.254 10.8925C124.658 12.0038 124.86 13.3054 124.86 14.7973V16.1332H110.573V13.1189H120.443C120.443 12.4186 120.296 11.7983 120.002 11.2578C119.708 10.7174 119.301 10.295 118.779 9.99049C118.265 9.6784 117.667 9.52236 116.984 9.52236C116.271 9.52236 115.64 9.69363 115.089 10.0362C114.546 10.3711 114.12 10.824 113.811 11.3949C113.503 11.9581 113.345 12.5861 113.337 13.2788V16.1446C113.337 17.0124 113.492 17.7621 113.8 18.3939C114.116 19.0257 114.56 19.5128 115.133 19.8554C115.706 20.1979 116.385 20.3692 117.171 20.3692C117.692 20.3692 118.17 20.2931 118.603 20.1408C119.036 19.9886 119.407 19.7602 119.716 19.4558C120.024 19.1513 120.259 18.7783 120.421 18.3368L124.761 18.6337C124.541 19.7146 124.089 20.6584 123.406 21.4653C122.73 22.2645 121.856 22.8887 120.784 23.3378C119.719 23.7793 118.489 24 117.094 24Z" fill="#1C33AC"/>
<path d="M132.406 17.2407L138.498 6.11989H143.124V23.6575H138.652V12.5024L132.582 23.6575H127.922V6.11989H132.406V17.2407ZM137.694 0H140.965C140.958 1.38535 140.462 2.50048 139.478 3.34539C138.501 4.1903 137.179 4.61275 135.512 4.61275C133.838 4.61275 132.512 4.1903 131.536 3.34539C130.559 2.50048 130.071 1.38535 130.071 0H133.32C133.313 0.525215 133.474 0.997147 133.805 1.4158C134.143 1.83444 134.712 2.04377 135.512 2.04377C136.291 2.04377 136.849 1.83825 137.187 1.42721C137.525 1.01618 137.694 0.540438 137.694 0Z" fill="#1C33AC"/>
<path d="M145.895 23.6575L145.873 19.7983H146.435C146.831 19.7983 147.173 19.6993 147.459 19.5014C147.753 19.2959 147.995 18.9648 148.186 18.5081C148.377 18.0514 148.528 17.4462 148.638 16.6927C148.748 15.9315 148.821 14.9952 148.858 13.8839L149.133 6.11989H162V23.6575H157.528V9.94481H153.353L153.088 15.2997C153.022 16.7688 152.85 18.0323 152.57 19.0904C152.299 20.1484 151.921 21.0162 151.436 21.6936C150.951 22.3635 150.367 22.8582 149.684 23.1779C149.001 23.4976 148.208 23.6575 147.305 23.6575H145.895Z" fill="#1C33AC"/>
<path d="M40.173 12.1142V13.8953V16.0761H54.5487V12.1142H50.4618H40.173Z" fill="#1C33AC"/>
</svg>
