<svg width="32" height="32" viewBox="0 0 32 32" xmlns="http://www.w3.org/2000/svg">
<rect width="32" height="32" fill="none" style="mix-blend-mode:multiply"/>
<path d="M23 16.0099C21.4934 16.0114 20.0274 16.4988 18.82 17.3999L14.6 13.1799C15.5117 11.9813 16.0037 10.5159 16 9.00994C16.0039 7.43284 15.4752 5.90063 14.4995 4.6616C13.5237 3.42258 12.1582 2.54935 10.6241 2.18345C9.09003 1.81754 7.47735 1.98039 6.04741 2.64561C4.61747 3.31083 3.45407 4.43944 2.74575 5.84852C2.03742 7.25761 1.82569 8.8646 2.14485 10.4091C2.46402 11.9535 3.29539 13.345 4.50422 14.3579C5.71305 15.3708 7.22851 15.9458 8.805 15.9897C10.3815 16.0337 11.9266 15.5439 13.19 14.5999L17.4 18.8199C16.4562 20.083 15.9665 21.6276 16.0102 23.2037C16.0538 24.7797 16.6282 26.2949 17.6404 27.5038C18.6526 28.7127 20.0433 29.5444 21.5872 29.8643C23.131 30.1842 24.7377 29.9736 26.1469 29.2665C27.5561 28.5593 28.6853 27.3972 29.3517 25.9682C30.018 24.5393 30.1824 22.9272 29.8182 21.3932C29.454 19.8591 28.5827 18.4929 27.3452 17.5159C26.1077 16.5389 24.5767 16.0083 23 16.0099ZM3.99999 9.00994C3.99999 8.02103 4.29323 7.05433 4.84264 6.23209C5.39205 5.40984 6.17294 4.76898 7.08657 4.39054C8.0002 4.0121 9.00553 3.91309 9.97544 4.10601C10.9453 4.29894 11.8363 4.77514 12.5355 5.47441C13.2348 6.17367 13.711 7.06458 13.9039 8.03449C14.0968 9.00439 13.9978 10.0097 13.6194 10.9234C13.2409 11.837 12.6001 12.6179 11.7778 13.1673C10.9556 13.7167 9.98889 14.0099 8.99999 14.0099C7.6739 14.0099 6.40213 13.4832 5.46445 12.5455C4.52677 11.6078 3.99999 10.336 3.99999 9.00994Z"/>
</svg>
