<svg width="32" height="32" viewBox="0 0 32 32" xmlns="http://www.w3.org/2000/svg">
<rect width="32" height="32" fill="none" style="mix-blend-mode:multiply"/>
<path d="M28 23V26.5859L23 21.5859V15C23 14.8143 22.9483 14.6322 22.8507 14.4742C22.7531 14.3163 22.6134 14.1886 22.4473 14.1055L17 11.3818V5.8281L19.5859 8.4141L21 7L16 2L11 7L12.4141 8.4141L15 5.8281V11.3818L9.5527 14.1055C9.3866 14.1886 9.24691 14.3163 9.14929 14.4742C9.05167 14.6322 8.99998 14.8143 9 15V21.5859L4 26.5859V23H2V30H9V28H5.4141L10.1973 23.2168L15.5527 25.8945C15.6916 25.9639 15.8447 26 16 26C16.1553 26 16.3084 25.9639 16.4473 25.8945L21.8027 23.2168L26.5859 28H23V30H30V23H28ZM15 23.3818L11 21.3818V16.6182L15 18.6182V23.3818ZM16 16.8818L12.2363 15L16 13.1182L19.7637 15L16 16.8818ZM21 21.3818L17 23.3818V18.6182L21 16.6182V21.3818Z"/>
</svg>
