<svg width="32" height="32" viewBox="0 0 32 32" xmlns="http://www.w3.org/2000/svg">
<rect width="32" height="32" fill="none" style="mix-blend-mode:multiply"/>
<path d="M28 17V22H4V6H14V4H4C3.46957 4 2.96086 4.21071 2.58579 4.58579C2.21071 4.96086 2 5.46957 2 6V22C2 22.5304 2.21071 23.0391 2.58579 23.4142C2.96086 23.7893 3.46957 24 4 24H12V28H8V30H24V28H20V24H28C28.5304 24 29.0391 23.7893 29.4142 23.4142C29.7893 23.0391 30 22.5304 30 22V17H28ZM18 28H14V24H18V28Z"/>
<path d="M30 10V8H27.8989C27.77 7.37406 27.5214 6.77888 27.167 6.2471L28.657 4.7571L27.243 3.3431L25.753 4.8331C25.2212 4.47861 24.626 4.23006 24 4.1011V2H22V4.1011C21.3741 4.23004 20.7789 4.47855 20.2471 4.833L18.7571 3.343L17.3431 4.757L18.8331 6.247C18.4786 6.77881 18.2301 7.37402 18.1011 8H16V10H18.1011C18.23 10.6259 18.4786 11.2211 18.833 11.7529L17.343 13.2429L18.757 14.6569L20.247 13.1669C20.7788 13.5214 21.374 13.7699 22 13.8989V16H24V13.8989C24.6259 13.77 25.2211 13.5214 25.7529 13.167L27.2429 14.657L28.6569 13.243L27.1669 11.753C27.5214 11.2212 27.7699 10.626 27.8989 10H30ZM23 12C22.4067 12 21.8266 11.8241 21.3333 11.4944C20.8399 11.1648 20.4554 10.6962 20.2284 10.1481C20.0013 9.59987 19.9419 8.99667 20.0576 8.41473C20.1734 7.83279 20.4591 7.29824 20.8787 6.87868C21.2982 6.45912 21.8328 6.1734 22.4147 6.05764C22.9967 5.94189 23.5999 6.0013 24.1481 6.22836C24.6962 6.45542 25.1648 6.83994 25.4944 7.33329C25.8241 7.82664 26 8.40666 26 9C25.9991 9.79538 25.6828 10.5579 25.1204 11.1204C24.5579 11.6828 23.7954 11.9991 23 12Z"/>
</svg>
