<svg width="32" height="32" viewBox="0 0 32 32" xmlns="http://www.w3.org/2000/svg">
<rect width="32" height="32" fill="none" style="mix-blend-mode:multiply"/>
<path d="M9.49996 8.00001H20.1C20.3478 9.21405 21.0375 10.2928 22.0355 11.0272C23.0335 11.7616 24.2687 12.0992 25.5015 11.9747C26.7343 11.8502 27.8769 11.2723 28.7079 10.3532C29.5389 9.43403 29.9989 8.23909 29.9989 7.00001C29.9989 5.76093 29.5389 4.56599 28.7079 3.64686C27.8769 2.72772 26.7343 2.14987 25.5015 2.02533C24.2687 1.90079 23.0335 2.23844 22.0355 2.97281C21.0375 3.70719 20.3478 4.78597 20.1 6.00001H9.49996C8.04127 6.00001 6.64232 6.57947 5.61087 7.61092C4.57942 8.64237 3.99996 10.0413 3.99996 11.5C3.99996 12.9587 4.57942 14.3576 5.61087 15.3891C6.64232 16.4205 8.04127 17 9.49996 17H20.5C21.4282 17 22.3185 17.3688 22.9748 18.0251C23.6312 18.6815 24 19.5718 24 20.5C24 21.4283 23.6312 22.3185 22.9748 22.9749C22.3185 23.6313 21.4282 24 20.5 24H11.9C11.6521 22.786 10.9624 21.7072 9.96437 20.9728C8.96637 20.2384 7.73123 19.9008 6.49843 20.0253C5.26563 20.1499 4.12298 20.7277 3.29202 21.6469C2.46106 22.566 2.00098 23.7609 2.00098 25C2.00098 26.2391 2.46106 27.434 3.29202 28.3532C4.12298 29.2723 5.26563 29.8502 6.49843 29.9747C7.73123 30.0992 8.96637 29.7616 9.96437 29.0272C10.9624 28.2928 11.6521 27.2141 11.9 26H20.5C21.9586 26 23.3576 25.4205 24.389 24.3891C25.4205 23.3576 26 21.9587 26 20.5C26 19.0413 25.4205 17.6424 24.389 16.6109C23.3576 15.5795 21.9586 15 20.5 15H9.49996C8.5717 15 7.68146 14.6313 7.02508 13.9749C6.36871 13.3185 5.99996 12.4283 5.99996 11.5C5.99996 10.5718 6.36871 9.68151 7.02508 9.02514C7.68146 8.36876 8.5717 8.00001 9.49996 8.00001ZM25 4.00001C25.5933 4.00001 26.1733 4.17596 26.6667 4.5056C27.16 4.83525 27.5445 5.30378 27.7716 5.85196C27.9987 6.40014 28.0581 7.00334 27.9423 7.58528C27.8266 8.16722 27.5408 8.70177 27.1213 9.12133C26.7017 9.54089 26.1672 9.82661 25.5852 9.94237C25.0033 10.0581 24.4001 9.99871 23.8519 9.77165C23.3037 9.54459 22.8352 9.16007 22.5055 8.66672C22.1759 8.17337 22 7.59336 22 7.00001C22 6.20436 22.316 5.4413 22.8786 4.87869C23.4412 4.31608 24.2043 4.00001 25 4.00001ZM6.99996 28C6.40661 28 5.82659 27.8241 5.33325 27.4944C4.8399 27.1648 4.45538 26.6962 4.22832 26.1481C4.00125 25.5999 3.94184 24.9967 4.0576 24.4147C4.17336 23.8328 4.45908 23.2982 4.87864 22.8787C5.29819 22.4591 5.83274 22.1734 6.41469 22.0577C6.99663 21.9419 7.59983 22.0013 8.14801 22.2284C8.69618 22.4554 9.16472 22.84 9.49436 23.3333C9.82401 23.8266 9.99996 24.4067 9.99996 25C9.99996 25.7957 9.68389 26.5587 9.12128 27.1213C8.55867 27.6839 7.79561 28 6.99996 28Z"/>
</svg>
