<svg width="28" height="25" viewBox="0 0 28 25" fill="none" xmlns="http://www.w3.org/2000/svg">
<path d="M10 12H4V14H10V12Z" fill="#1C33AC"/>
<path d="M14 8H4V10H14V8Z" fill="#1C33AC"/>
<path d="M14 4H4V6H14V4Z" fill="#1C33AC"/>
<path d="M12 22H2V2H26V12H28V2C28 1.46957 27.7893 0.960859 27.4142 0.585786C27.0391 0.210714 26.5304 0 26 0H2C1.46957 0 0.960859 0.210714 0.585786 0.585786C0.210714 0.960859 0 1.46957 0 2V22C0 22.5304 0.210714 23.0391 0.585786 23.4142C0.960859 23.7893 1.46957 24 2 24H12V22Z" fill="#1C33AC"/>
<path d="M20 21.59L17.41 19L16 20.41L20 24.41L28 16.41L26.59 15L20 21.59Z" fill="#1C33AC"/>
</svg>
