<svg width="32" height="32" viewBox="0 0 32 32" xmlns="http://www.w3.org/2000/svg">
<rect width="32" height="32" fill="none" style="mix-blend-mode:multiply"/>
<path d="M11.61 29.9199C11.4054 29.8335 11.2353 29.6814 11.1267 29.4877C11.018 29.2939 10.977 29.0695 11.01 28.8499L12.83 16.9999H8.00004C7.84691 17.004 7.69489 16.9729 7.55569 16.9089C7.4165 16.845 7.29385 16.7499 7.19722 16.6311C7.10059 16.5122 7.03256 16.3727 6.99837 16.2234C6.96418 16.0741 6.96475 15.9189 7.00004 15.7699L10 2.76987C10.0528 2.54614 10.1811 2.34743 10.3632 2.20718C10.5454 2.06694 10.7702 1.99373 11 1.99987H21C21.1494 1.99936 21.297 2.03233 21.432 2.09636C21.567 2.16039 21.6859 2.25385 21.78 2.36987C21.8755 2.4872 21.9431 2.62465 21.9777 2.77189C22.0124 2.91912 22.0132 3.07229 21.98 3.21987L20.25 10.9999H25C25.1875 10.9995 25.3712 11.0518 25.5303 11.1508C25.6895 11.2498 25.8176 11.3916 25.9 11.5599C25.9717 11.7214 25.9993 11.899 25.98 12.0747C25.9606 12.2504 25.8951 12.4178 25.79 12.5599L12.79 29.5599C12.7022 29.6901 12.5849 29.7978 12.4476 29.8743C12.3104 29.9507 12.157 29.9937 12 29.9999C11.8662 29.9974 11.734 29.9703 11.61 29.9199ZM17.75 12.9999L19.75 3.99987H11.8L9.26004 14.9999H15.17L13.58 25.2799L23 12.9999H17.75Z"/>
</svg>
