<svg width="34" height="32" viewBox="0 0 34 32" fill="none" xmlns="http://www.w3.org/2000/svg">
<path d="M16.9999 5.335L20.1049 11.6125L20.6224 12.7375L21.7474 12.9062L28.6774 13.9075L23.7499 18.745L22.9062 19.5663L23.1087 20.6913L24.2899 27.5875L18.0912 24.3362L16.9999 23.875L15.9537 24.4262L9.75494 27.6325L10.8799 20.7362L11.0824 19.6112L10.2499 18.745L5.27744 13.8513L12.2074 12.85L13.3324 12.6813L13.8499 11.5563L16.9999 5.335ZM16.9999 0.25L11.8812 10.6225L0.439941 12.2762L8.71994 20.3538L6.76244 31.75L16.9999 26.3725L27.2374 31.75L25.2799 20.3538L33.5599 12.2875L22.1187 10.6225L16.9999 0.25Z" fill="#1C33AC"/>
</svg>
